<svg version="1.1" xmlns="http://www.w3.org/2000/svg" xmlns:xlink="http://www.w3.org/1999/xlink" width="105.75" height="116" viewBox="0,0,105.75,116"><g transform="translate(-187.125,-122)"><g data-paper-data="{&quot;isPaintingLayer&quot;:true}" fill-rule="nonzero" stroke="#000000" stroke-width="2" stroke-linejoin="miter" stroke-miterlimit="10" stroke-dasharray="" stroke-dashoffset="0" style="mix-blend-mode: normal"><path d="M213.375,164.5c0,3.31371 -2.74225,6 -6.125,6c-3.38274,0 -6.125,-2.68629 -6.125,-6c0,-3.31371 2.74226,-6 6.125,-6c3.38275,0 6.125,2.68629 6.125,6z" fill="#d4d4d4" stroke-linecap="butt"/><path d="M275.375,144c0,3.31371 -2.74225,6 -6.125,6c-3.38274,0 -6.125,-2.68629 -6.125,-6c0,-3.31371 2.74226,-6 6.125,-6c3.38275,0 6.125,2.68629 6.125,6z" fill="#d4d4d4" stroke-linecap="butt"/><path d="M227.375,129c0,3.31371 -2.74225,6 -6.125,6c-3.38274,0 -6.125,-2.68629 -6.125,-6c0,-3.31371 2.74226,-6 6.125,-6c3.38275,0 6.125,2.68629 6.125,6z" fill="#d4d4d4" stroke-linecap="butt"/><path d="M200.375,203c0,3.31371 -2.74225,6 -6.125,6c-3.38274,0 -6.125,-2.68629 -6.125,-6c0,-3.31371 2.74226,-6 6.125,-6c3.38275,0 6.125,2.68629 6.125,6z" fill="#d4d4d4" stroke-linecap="butt"/><path d="M247.375,197.5c0,3.31371 -2.74225,6 -6.125,6c-3.38274,0 -6.125,-2.68629 -6.125,-6c0,-3.31371 2.74226,-6 6.125,-6c3.38275,0 6.125,2.68629 6.125,6z" fill="#d4d4d4" stroke-linecap="butt"/><path d="M291.875,176c0,3.31371 -2.74225,6 -6.125,6c-3.38274,0 -6.125,-2.68629 -6.125,-6c0,-3.31371 2.74226,-6 6.125,-6c3.38275,0 6.125,2.68629 6.125,6z" fill="#d4d4d4" stroke-linecap="butt"/><path d="M219.375,231c0,3.31371 -2.74225,6 -6.125,6c-3.38274,0 -6.125,-2.68629 -6.125,-6c0,-3.31371 2.74226,-6 6.125,-6c3.38275,0 6.125,2.68629 6.125,6z" fill="#d4d4d4" stroke-linecap="butt"/><path d="M284.375,212c0,3.31371 -2.74225,6 -6.125,6c-3.38274,0 -6.125,-2.68629 -6.125,-6c0,-3.31371 2.74226,-6 6.125,-6c3.38275,0 6.125,2.68629 6.125,6z" fill="#d4d4d4" stroke-linecap="butt"/><path d="M228.125,191.875l-12.75,33.25l-14.75,-23.5l12.5,-35l11,-32.5l39,12.25l16,27.5l0.5,31.25l-31.25,-7.25l30.75,-21l-66.25,-8.75z" fill="none" stroke-linecap="round"/></g></g></svg>